%TF.GenerationSoftware,KiCad,Pcbnew,10.0.4-1.fc44*%
%TF.CreationDate,2026-07-28T21:07:30+05:30*%
%TF.ProjectId,USB-PD-Power-Supply,5553422d-5044-42d5-906f-7765722d5375,rev?*%
%TF.SameCoordinates,Original*%
%TF.FileFunction,Soldermask,Top*%
%TF.FilePolarity,Negative*%
%FSLAX46Y46*%
G04 Gerber Fmt 4.6, Leading zero omitted, Abs format (unit mm)*
G04 Created by KiCad (PCBNEW 10.0.4-1.fc44) date 2026-07-28 21:07:30*
%MOMM*%
%LPD*%
G01*
G04 APERTURE LIST*
G04 Aperture macros list*
%AMRoundRect*
0 Rectangle with rounded corners*
0 $1 Rounding radius*
0 $2 $3 $4 $5 $6 $7 $8 $9 X,Y pos of 4 corners*
0 Add a 4 corners polygon primitive as box body*
4,1,4,$2,$3,$4,$5,$6,$7,$8,$9,$2,$3,0*
0 Add four circle primitives for the rounded corners*
1,1,$1+$1,$2,$3*
1,1,$1+$1,$4,$5*
1,1,$1+$1,$6,$7*
1,1,$1+$1,$8,$9*
0 Add four rect primitives between the rounded corners*
20,1,$1+$1,$2,$3,$4,$5,0*
20,1,$1+$1,$4,$5,$6,$7,0*
20,1,$1+$1,$6,$7,$8,$9,0*
20,1,$1+$1,$8,$9,$2,$3,0*%
%AMRotRect*
0 Rectangle, with rotation*
0 The origin of the aperture is its center*
0 $1 length*
0 $2 width*
0 $3 Rotation angle, in degrees counterclockwise*
0 Add horizontal line*
21,1,$1,$2,0,0,$3*%
G04 Aperture macros list end*
%ADD10RoundRect,0.160000X-0.160000X0.197500X-0.160000X-0.197500X0.160000X-0.197500X0.160000X0.197500X0*%
%ADD11RoundRect,0.155000X0.212500X0.155000X-0.212500X0.155000X-0.212500X-0.155000X0.212500X-0.155000X0*%
%ADD12RoundRect,0.250000X1.050000X-1.050000X1.050000X1.050000X-1.050000X1.050000X-1.050000X-1.050000X0*%
%ADD13C,2.600000*%
%ADD14RoundRect,0.250000X-0.325000X-0.450000X0.325000X-0.450000X0.325000X0.450000X-0.325000X0.450000X0*%
%ADD15RotRect,0.700000X0.700000X45.000000*%
%ADD16RoundRect,0.250000X-0.450000X0.325000X-0.450000X-0.325000X0.450000X-0.325000X0.450000X0.325000X0*%
%ADD17R,0.850000X0.850000*%
%ADD18C,0.850000*%
%ADD19RoundRect,0.155000X-0.155000X0.212500X-0.155000X-0.212500X0.155000X-0.212500X0.155000X0.212500X0*%
%ADD20RoundRect,0.150000X0.687500X0.150000X-0.687500X0.150000X-0.687500X-0.150000X0.687500X-0.150000X0*%
%ADD21R,2.100000X3.300000*%
%ADD22C,0.600000*%
%ADD23RoundRect,0.155000X0.155000X-0.212500X0.155000X0.212500X-0.155000X0.212500X-0.155000X-0.212500X0*%
%ADD24C,3.800000*%
%ADD25R,0.650000X1.525000*%
%ADD26RoundRect,0.150000X-0.150000X0.587500X-0.150000X-0.587500X0.150000X-0.587500X0.150000X0.587500X0*%
%ADD27C,0.650000*%
%ADD28RoundRect,0.150000X-0.575000X0.150000X-0.575000X-0.150000X0.575000X-0.150000X0.575000X0.150000X0*%
%ADD29RoundRect,0.075000X-0.650000X0.075000X-0.650000X-0.075000X0.650000X-0.075000X0.650000X0.075000X0*%
%ADD30O,2.100000X1.000000*%
%ADD31O,1.600000X1.000000*%
%ADD32RoundRect,0.160000X0.160000X-0.197500X0.160000X0.197500X-0.160000X0.197500X-0.160000X-0.197500X0*%
%ADD33RoundRect,0.160000X0.197500X0.160000X-0.197500X0.160000X-0.197500X-0.160000X0.197500X-0.160000X0*%
%ADD34RotRect,0.700000X0.700000X135.000000*%
%ADD35RoundRect,0.146250X-0.250750X0.560750X-0.250750X-0.560750X0.250750X-0.560750X0.250750X0.560750X0*%
%ADD36O,0.560000X2.655000*%
%ADD37RoundRect,0.237500X-0.300000X-0.237500X0.300000X-0.237500X0.300000X0.237500X-0.300000X0.237500X0*%
G04 APERTURE END LIST*
D10*
%TO.C,R7*%
X144250000Y-110500000D03*
X144250000Y-111695000D03*
%TD*%
D11*
%TO.C,C6*%
X135817500Y-110000000D03*
X134682500Y-110000000D03*
%TD*%
D12*
%TO.C,J1*%
X165422500Y-106045000D03*
D13*
X165422500Y-100965000D03*
%TD*%
D10*
%TO.C,R9*%
X145500000Y-110402500D03*
X145500000Y-111597500D03*
%TD*%
D14*
%TO.C,28V*%
X136725000Y-89250000D03*
X138775000Y-89250000D03*
%TD*%
D15*
%TO.C,D3*%
X135211091Y-104361091D03*
X135988909Y-105138909D03*
%TD*%
D10*
%TO.C,R3*%
X151750000Y-110402500D03*
X151750000Y-111597500D03*
%TD*%
D14*
%TO.C,5V*%
X158700000Y-89250000D03*
X160750000Y-89250000D03*
%TD*%
D16*
%TO.C,D1*%
X139250000Y-116225000D03*
X139250000Y-118275000D03*
%TD*%
D17*
%TO.C,J3*%
X163000000Y-114000000D03*
D18*
X163000000Y-115000000D03*
X163000000Y-116000000D03*
%TD*%
D19*
%TO.C,C4*%
X158800000Y-103200000D03*
X158800000Y-104335000D03*
%TD*%
D10*
%TO.C,R10*%
X146750000Y-110402500D03*
X146750000Y-111597500D03*
%TD*%
%TO.C,R1*%
X141000000Y-117152500D03*
X141000000Y-118347500D03*
%TD*%
D20*
%TO.C,U2*%
X147887500Y-102500000D03*
X147887500Y-101500000D03*
X147887500Y-100500000D03*
X147887500Y-99500000D03*
X147887500Y-98500000D03*
X142612500Y-98500000D03*
X142612500Y-99500000D03*
X142612500Y-100500000D03*
X142612500Y-101500000D03*
X142612500Y-102500000D03*
D21*
X145250000Y-100500000D03*
D22*
X145750000Y-101500000D03*
X145750000Y-99500000D03*
X145250000Y-100500000D03*
X144750000Y-101500000D03*
X144750000Y-99500000D03*
%TD*%
D10*
%TO.C,R11*%
X153000000Y-110402500D03*
X153000000Y-111597500D03*
%TD*%
D11*
%TO.C,C9*%
X135717500Y-118400000D03*
X134582500Y-118400000D03*
%TD*%
D23*
%TO.C,C1*%
X134000000Y-100817500D03*
X134000000Y-99682500D03*
%TD*%
D24*
%TO.C,H2*%
X167750000Y-88500000D03*
%TD*%
D19*
%TO.C,C2*%
X134200000Y-106182500D03*
X134200000Y-107317500D03*
%TD*%
D25*
%TO.C,IC1*%
X143000000Y-119200000D03*
X144270000Y-119200000D03*
X145540000Y-119200000D03*
X146810000Y-119200000D03*
X148080000Y-119200000D03*
X149350000Y-119200000D03*
X150620000Y-119200000D03*
X151890000Y-119200000D03*
X151890000Y-113776000D03*
X150620000Y-113776000D03*
X149350000Y-113776000D03*
X148080000Y-113776000D03*
X146810000Y-113776000D03*
X145540000Y-113776000D03*
X144270000Y-113776000D03*
X143000000Y-113776000D03*
%TD*%
D23*
%TO.C,C5*%
X143000000Y-111817500D03*
X143000000Y-110682500D03*
%TD*%
D26*
%TO.C,Q1*%
X140700000Y-110062500D03*
X138800000Y-110062500D03*
X139750000Y-111937500D03*
%TD*%
D24*
%TO.C,H1*%
X127750000Y-88500000D03*
%TD*%
D10*
%TO.C,R8*%
X148000000Y-110402500D03*
X148000000Y-111597500D03*
%TD*%
D27*
%TO.C,J2*%
X130100000Y-100610000D03*
X130100000Y-106390000D03*
D28*
X131545000Y-100250000D03*
X131545000Y-101050000D03*
D29*
X131545000Y-102250000D03*
X131545000Y-103250000D03*
X131545000Y-103750000D03*
X131545000Y-104750000D03*
D28*
X131545000Y-105950000D03*
X131545000Y-106750000D03*
X131545000Y-106750000D03*
X131545000Y-105950000D03*
D29*
X131545000Y-105250000D03*
X131545000Y-104250000D03*
X131545000Y-102750000D03*
X131545000Y-101750000D03*
D28*
X131545000Y-101050000D03*
X131545000Y-100250000D03*
D30*
X130630000Y-99180000D03*
D31*
X126450000Y-99180000D03*
D30*
X130630000Y-107820000D03*
D31*
X126450000Y-107820000D03*
%TD*%
D32*
%TO.C,R2*%
X141000000Y-113847500D03*
X141000000Y-112652500D03*
%TD*%
D33*
%TO.C,R6*%
X140347500Y-98500000D03*
X139152500Y-98500000D03*
%TD*%
D24*
%TO.C,H4*%
X167750000Y-118500000D03*
%TD*%
%TO.C,H3*%
X127750000Y-118500000D03*
%TD*%
D10*
%TO.C,R5*%
X149250000Y-110402500D03*
X149250000Y-111597500D03*
%TD*%
D14*
%TO.C,20V*%
X142200000Y-89250000D03*
X144250000Y-89250000D03*
%TD*%
%TO.C,12V*%
X147700000Y-89250000D03*
X149750000Y-89250000D03*
%TD*%
D34*
%TO.C,D2*%
X135211091Y-102638909D03*
X135988909Y-101861091D03*
%TD*%
D11*
%TO.C,C7*%
X135700000Y-116250000D03*
X134565000Y-116250000D03*
%TD*%
D35*
%TO.C,U3*%
X135700000Y-111995000D03*
X134750000Y-111995000D03*
X133800000Y-111995000D03*
X133800000Y-114505000D03*
X135700000Y-114505000D03*
%TD*%
D10*
%TO.C,R4*%
X150500000Y-110402500D03*
X150500000Y-111597500D03*
%TD*%
D36*
%TO.C,U1*%
X156980000Y-118702500D03*
X158250000Y-118702500D03*
X159520000Y-118702500D03*
X159520000Y-111097500D03*
X158250000Y-111097500D03*
X156980000Y-111097500D03*
%TD*%
D11*
%TO.C,C8*%
X135700000Y-117300000D03*
X134565000Y-117300000D03*
%TD*%
D37*
%TO.C,C3*%
X146167500Y-104180000D03*
X147892500Y-104180000D03*
%TD*%
D14*
%TO.C,9V*%
X153200000Y-89250000D03*
X155250000Y-89250000D03*
%TD*%
M02*
